<svg width="43" height="40" viewBox="0 0 43 40" fill="none" xmlns="http://www.w3.org/2000/svg">
<path d="M13.8141 17.1656C13.7334 17.1656 13.6526 17.154 13.5718 17.131C13.0834 16.9963 12.795 16.4925 12.9296 16.0002C13.6565 13.3425 16.4679 5.04647 19.7177 1.85419C21.1523 0.44267 23.1368 -0.241938 24.8905 0.0772891C27.0251 0.465746 28.6365 2.46957 28.4135 4.45801C28.2519 5.87338 27.2597 7.16567 25.6174 8.10028C25.1136 8.38874 24.5944 8.62335 24.0944 8.85412C23.4175 9.16565 22.7791 9.45796 22.2176 9.84257C21.4946 10.3426 20.7023 11.2656 20.8484 12.2079C20.9446 12.8272 21.4753 13.4271 22.2022 13.7348C22.8637 14.0156 23.6829 14.1079 24.779 14.0194C25.629 13.9502 26.4828 13.7925 27.3174 13.5502C27.8058 13.4079 28.3135 13.6887 28.4558 14.1771C28.5981 14.6656 28.3173 15.1733 27.8289 15.3156C26.8751 15.5925 25.8982 15.7733 24.9252 15.8502C23.5175 15.9617 22.4253 15.8271 21.4792 15.4233C20.1638 14.8617 19.2254 13.7348 19.0331 12.4848C18.7601 10.7041 19.96 9.1695 21.1753 8.3272C21.8715 7.84644 22.6137 7.50413 23.3329 7.17721C23.8214 6.95414 24.279 6.7426 24.7136 6.49645C25.2367 6.2003 26.4635 5.38492 26.5943 4.24263C26.7212 3.12341 25.6328 2.07342 24.5713 1.88112C23.3983 1.66958 22.033 2.16188 21.01 3.16572C19.5062 4.64262 16.5525 9.75411 14.7064 16.4848C14.5949 16.8925 14.2257 17.1617 13.8218 17.1617" fill="black"/>
<path d="M33.0653 8.28884C32.6191 8.28884 32.0769 8.43884 31.623 8.70038C30.4308 9.38499 29.4731 10.4542 28.7809 11.8696C28.5886 12.2619 28.4578 12.7196 28.4155 13.1888C30.2346 12.485 31.8692 11.3965 33.1922 10.0004C33.7229 9.43883 33.9883 8.86576 33.8422 8.60423C33.796 8.52346 33.7076 8.40423 33.4653 8.33884C33.346 8.30807 33.2114 8.29269 33.0691 8.29269M36.8766 23.381C34.2075 23.381 31.5769 22.3425 29.6385 20.4772C29.2731 20.1233 29.2616 19.5426 29.6154 19.1772C29.9693 18.8118 30.55 18.8003 30.9154 19.1541C32.7576 20.9272 35.4767 21.8156 38.0112 21.4695C38.4573 21.4079 39.9496 21.131 40.3342 20.1541C40.4765 19.7926 40.438 19.4003 40.2149 18.9849C39.865 18.3234 39.1188 17.7657 38.3612 17.5964C37.2035 17.3349 35.9651 17.5772 34.6498 17.831C34.2806 17.9003 33.9037 17.9772 33.5229 18.0387C30.9923 18.4503 29.0078 18.008 27.7848 16.7541C27.2463 16.2003 26.8771 15.4965 26.6925 14.7195C26.6925 14.7157 26.6925 14.708 26.6887 14.7042C26.6771 14.6619 26.6656 14.6157 26.6617 14.5734C26.431 13.4503 26.5771 12.1965 27.1309 11.0657C27.9886 9.31576 29.1924 7.985 30.7077 7.11193C31.523 6.64271 32.7999 6.25425 33.9499 6.56963C34.6075 6.7504 35.1267 7.1427 35.4421 7.70424C36.0267 8.73884 35.6921 10.0388 34.5267 11.2696C32.9384 12.9465 30.9615 14.2311 28.7655 15.0272C28.8578 15.1849 28.9693 15.3349 29.1001 15.4695C30.0962 16.4888 31.8923 16.4426 33.2268 16.2272C33.5806 16.1695 33.9306 16.1003 34.2998 16.0311C35.7421 15.7541 37.2305 15.4657 38.7612 15.808C40.0496 16.0965 41.2303 16.9887 41.8341 18.131C42.3033 19.0157 42.3764 19.9772 42.0379 20.8349C41.5226 22.1387 40.1457 23.0387 38.2535 23.2964C37.792 23.3579 37.3305 23.3887 36.8728 23.3887" fill="black"/>
<path d="M31.4004 37.7692C30.4697 37.7692 29.6159 37.4308 29.0005 36.8116C27.466 35.2616 27.9083 32.9155 28.2275 31.2039C28.389 30.3386 28.6467 28.2578 27.516 27.6463C27.0852 27.4117 26.466 27.4424 25.8968 27.7232C25.3776 27.9809 24.8776 28.4386 24.3238 29.154C23.6469 30.0309 23.0969 31.0001 22.6854 32.0424C22.497 32.5155 21.9624 32.7462 21.4932 32.5578C21.0201 32.3693 20.7894 31.8347 20.9778 31.3655C21.4547 30.1655 22.0893 29.0424 22.87 28.0309C23.3277 27.4347 24.0584 26.5848 25.0815 26.0771C26.193 25.5271 27.4275 25.5078 28.3928 26.0271C29.962 26.8771 30.5466 28.8347 30.0389 31.5424C29.7774 32.927 29.4543 34.6539 30.312 35.5193C30.7504 35.9616 31.3619 35.9577 31.685 35.9116C32.458 35.8077 33.1849 35.3385 33.5388 34.7116C34.4656 33.0731 33.6811 31.0309 33.3003 30.2309C32.8734 29.327 32.3119 28.4924 31.7158 27.6078C31.2773 26.954 30.8235 26.2809 30.4235 25.5694C29.1928 23.3848 28.839 21.2963 29.3928 19.5387C29.5466 19.0541 30.062 18.7848 30.5466 18.9387C31.0312 19.0925 31.3004 19.6079 31.1466 20.0925C30.6427 21.6887 31.3466 23.4617 32.0234 24.6694C32.3888 25.3155 32.8003 25.9348 33.2388 26.5848C33.8426 27.4847 34.4695 28.4193 34.9579 29.4463C36.0233 31.6924 36.0848 33.9424 35.1348 35.6231C34.4964 36.75 33.2657 37.5616 31.9235 37.7423C31.7465 37.7654 31.5735 37.7769 31.4004 37.7769" fill="black"/>
<path d="M22.483 32.5809C22.206 33.3924 22.0176 34.227 21.9214 35.0731C21.8176 35.9924 21.8714 36.6616 22.0868 37.1847C22.3137 37.7308 22.7868 38.1308 23.2329 38.1577C23.6291 38.1846 24.0867 37.9193 24.3752 37.5C24.6598 37.0808 24.8213 36.5039 24.8521 35.7808C24.9021 34.5693 24.529 33.5385 23.8521 33.0193C23.456 32.7155 22.9714 32.5924 22.483 32.5809ZM23.2829 39.9962C23.2291 39.9962 23.1752 39.9962 23.1214 39.9923C21.9637 39.9231 20.8907 39.1 20.3869 37.8923C19.9369 36.8116 20.0023 35.6462 20.0908 34.8655C20.1561 34.2847 20.26 33.7078 20.4023 33.1385C19.5716 33.5962 18.8293 34.2501 18.0524 34.9424C17.8639 35.1116 17.6716 35.2808 17.4793 35.4462C16.1294 36.6116 14.2987 37.9616 12.0911 38.0346C10.8027 38.0731 9.43741 37.527 8.53361 36.5924C7.78364 35.8193 7.40674 34.8539 7.47212 33.8732C7.54519 32.7539 8.13363 31.7578 9.17204 30.9924C9.99123 30.3886 11.0604 29.9617 12.1757 29.7924C12.8026 29.6963 13.4334 29.654 14.0449 29.6117C15.2371 29.5309 16.3679 29.454 17.3293 28.9963C17.787 28.7809 18.337 28.9732 18.5524 29.4347C18.7716 29.8924 18.5754 30.4424 18.1139 30.6578C16.8371 31.2616 15.4794 31.354 14.168 31.4463C13.568 31.4886 13.0065 31.527 12.4527 31.6116C10.9489 31.8424 9.38357 32.7347 9.3028 33.9924C9.26434 34.577 9.57971 35.0347 9.84893 35.3116C10.3951 35.8731 11.2527 36.227 12.0258 36.1962C13.6564 36.1424 15.1525 35.0231 16.2717 34.0539C16.4563 33.8924 16.6409 33.7308 16.8255 33.5655C17.7563 32.7424 18.7139 31.8924 19.9062 31.3232C22.0599 30.2963 23.929 30.7732 24.9559 31.5578C26.1289 32.4539 26.7597 34.0193 26.6789 35.8616C26.6328 36.9347 26.3635 37.8385 25.879 38.5423C25.2559 39.45 24.2675 40 23.2714 40" fill="black"/>
<path d="M13.1654 30.85C10.9194 30.85 8.66949 30.7769 6.44267 30.6308C5.3658 30.5615 4.31585 30.4615 3.31974 30.05C2.06211 29.5308 1.13907 28.5462 0.850625 27.4193C0.619867 26.5193 0.796782 25.5577 1.3506 24.7116C2.01596 23.6885 3.17744 22.9308 4.37354 22.7347C6.38883 22.4039 8.3272 23.277 9.78866 24.077C10.9271 24.7001 12.0693 25.2116 12.727 24.7501C13.1616 24.4424 13.427 23.3731 12.6655 21.9501C12.1347 20.9616 11.4232 20.0732 10.5425 19.3117C10.1579 18.977 10.1156 18.4001 10.4502 18.0155C10.7809 17.6309 11.3617 17.5924 11.7463 17.9232C12.7962 18.8309 13.65 19.8963 14.2846 21.0809C15.1884 22.7655 15.4153 25.1039 13.7846 26.2539C12.1001 27.4423 10.0194 26.3039 8.90409 25.6924C7.7003 25.0347 6.13499 24.3078 4.67352 24.5501C3.9774 24.6654 3.27743 25.1231 2.88899 25.7193C2.70054 26.0077 2.50055 26.4616 2.63131 26.9654C2.77361 27.5269 3.3082 28.0577 4.02355 28.3539C4.76198 28.6616 5.60809 28.7346 6.56189 28.8C10.2463 29.0423 13.9885 29.0808 17.6806 28.9154C18.1883 28.8923 18.619 29.2846 18.6421 29.7923C18.6652 30.3 18.2729 30.7308 17.7652 30.7538C16.2384 30.8231 14.7038 30.8577 13.1654 30.8577" fill="black"/>
<path d="M5.1422 17.0041C4.45377 17.0041 3.69996 17.2349 3.47304 17.6888C3.39613 17.8426 3.31536 18.2003 3.50766 18.5541C3.81534 19.1157 4.69606 19.4926 5.98447 19.6195C6.84981 19.7041 7.98437 19.5733 8.87664 19.2849C9.2497 19.1657 9.58045 18.981 9.84967 18.758C8.54588 17.8234 7.02672 17.2118 5.48834 17.0234C5.3768 17.008 5.26142 17.0041 5.1422 17.0041ZM6.53059 21.4849C6.28061 21.4849 6.03831 21.4733 5.8114 21.4503C3.36151 21.2156 2.33079 20.2272 1.90004 19.4426C1.37314 18.4849 1.51929 17.4811 1.83466 16.858C2.53463 15.4734 4.33839 15.0272 5.71909 15.1965C7.39594 15.4042 9.04971 16.0234 10.5035 16.9734C10.3804 16.3465 9.99197 15.7311 9.58045 15.2772C9.13047 14.7849 8.59204 14.3657 8.02283 13.9157C7.58824 13.5734 7.1421 13.2234 6.7152 12.8273C5.37296 11.5734 4.69222 10.1235 4.79991 8.74654C4.88452 7.64271 5.48064 6.65041 6.47675 5.95042C7.60362 5.15812 9.09201 4.88505 10.3573 5.23504C11.9688 5.68119 13.9456 7.2081 14.6725 10.1581C15.1879 12.2465 14.9456 14.4234 14.7302 16.3426C14.6725 16.8465 14.2187 17.2118 13.7149 17.1541C13.211 17.0965 12.8457 16.6426 12.9034 16.1388C13.1111 14.2849 13.3226 12.3696 12.888 10.6004C12.4457 8.80423 11.2611 7.39271 9.8689 7.0081C9.11893 6.80041 8.22282 6.97349 7.53439 7.45425C7.22287 7.67348 6.69212 8.1504 6.63444 8.885C6.54982 9.9773 7.43824 10.9811 7.97283 11.4811C8.3382 11.8234 8.73818 12.135 9.15739 12.4657C9.76121 12.9388 10.3843 13.4273 10.9342 14.0311C12.1803 15.3888 12.6611 17.0349 12.2188 18.4311C12.1534 18.6349 12.0688 18.831 11.9688 19.0234C11.9611 19.0387 11.9534 19.0541 11.9419 19.0734C11.4457 19.9657 10.5496 20.6772 9.43815 21.031C8.54588 21.3195 7.4844 21.4772 6.53059 21.4772" fill="black"/>
</svg>
