<svg width="42" height="40" viewBox="0 0 42 40" fill="none" xmlns="http://www.w3.org/2000/svg">
<path d="M13.0622 17.1656C12.9814 17.1656 12.9007 17.154 12.8199 17.131C12.3315 16.9963 12.043 16.4925 12.1776 16.0002C12.9045 13.3425 15.7159 5.04647 18.9658 1.85419C20.4003 0.44267 22.3848 -0.241938 24.1386 0.0772891C26.2731 0.465746 27.8846 2.46957 27.6615 4.45801C27.5 5.87338 26.5077 7.16567 24.8655 8.10028C24.3617 8.38874 23.8425 8.62335 23.3425 8.85412C22.6656 9.16565 22.0272 9.45796 21.4656 9.84257C20.7426 10.3426 19.9503 11.2656 20.0965 12.2079C20.1926 12.8272 20.7234 13.4271 21.4503 13.7348C22.1118 14.0156 22.931 14.1079 24.0271 14.0194C24.877 13.9502 25.7308 13.7925 26.5654 13.5502C27.0538 13.4079 27.5615 13.6887 27.7038 14.1771C27.8461 14.6656 27.5654 15.1733 27.0769 15.3156C26.1231 15.5925 25.1462 15.7733 24.1732 15.8502C22.7656 15.9617 21.6733 15.8271 20.7272 15.4233C19.4119 14.8617 18.4735 13.7348 18.2812 12.4848C18.0081 10.7041 19.2081 9.1695 20.4234 8.3272C21.1195 7.84644 21.8618 7.50413 22.581 7.17721C23.0694 6.95414 23.5271 6.7426 23.9617 6.49645C24.4847 6.2003 25.7116 5.38492 25.8424 4.24263C25.9693 3.12341 24.8809 2.07342 23.8194 1.88112C22.6464 1.66958 21.281 2.16188 20.258 3.16572C18.7542 4.64262 15.8005 9.75411 13.9545 16.4848C13.8429 16.8925 13.4737 17.1617 13.0699 17.1617" fill="white"/>
<path d="M32.3133 8.28884C31.8672 8.28884 31.3249 8.43884 30.8711 8.70038C29.6788 9.38499 28.7212 10.4542 28.0289 11.8696C27.8366 12.2619 27.7058 12.7196 27.6635 13.1888C29.4827 12.485 31.1172 11.3965 32.4402 10.0004C32.971 9.43883 33.2364 8.86576 33.0902 8.60423C33.0441 8.52346 32.9556 8.40423 32.7133 8.33884C32.5941 8.30807 32.4595 8.29269 32.3172 8.29269M36.1247 23.381C33.4556 23.381 30.8249 22.3425 28.8866 20.4772C28.5212 20.1233 28.5097 19.5426 28.8635 19.1772C29.2173 18.8118 29.7981 18.8003 30.1634 19.1541C32.0056 20.9272 34.7248 21.8156 37.2592 21.4695C37.7054 21.4079 39.1976 21.131 39.5822 20.1541C39.7245 19.7926 39.6861 19.4003 39.463 18.9849C39.113 18.3234 38.3669 17.7657 37.6092 17.5964C36.4516 17.3349 35.2132 17.5772 33.8979 17.831C33.5287 17.9003 33.1517 17.9772 32.771 18.0387C30.2403 18.4503 28.2558 18.008 27.0328 16.7541C26.4944 16.2003 26.1252 15.4965 25.9405 14.7195C25.9405 14.7157 25.9405 14.708 25.9367 14.7042C25.9252 14.6619 25.9136 14.6157 25.9098 14.5734C25.679 13.4503 25.8252 12.1965 26.379 11.0657C27.2366 9.31576 28.4404 7.985 29.9557 7.11193C30.7711 6.64271 32.048 6.25425 33.1979 6.56963C33.8556 6.7504 34.3748 7.1427 34.6901 7.70424C35.2747 8.73884 34.9401 10.0388 33.7748 11.2696C32.1864 12.9465 30.2096 14.2311 28.0135 15.0272C28.1058 15.1849 28.2174 15.3349 28.3481 15.4695C29.3442 16.4888 31.1403 16.4426 32.4749 16.2272C32.8287 16.1695 33.1787 16.1003 33.5479 16.0311C34.9901 15.7541 36.4785 15.4657 38.0092 15.808C39.2976 16.0965 40.4783 16.9887 41.0821 18.131C41.5514 19.0157 41.6244 19.9772 41.286 20.8349C40.7706 22.1387 39.3938 23.0387 37.5015 23.2964C37.04 23.3579 36.5785 23.3887 36.1208 23.3887" fill="white"/>
<path d="M30.6484 37.7692C29.7177 37.7692 28.8639 37.4308 28.2486 36.8116C26.714 35.2616 27.1563 32.9155 27.4755 31.2039C27.637 30.3386 27.8947 28.2578 26.764 27.6463C26.3333 27.4117 25.7141 27.4424 25.1449 27.7232C24.6257 27.9809 24.1257 28.4386 23.5719 29.154C22.895 30.0309 22.345 31.0001 21.9335 32.0424C21.745 32.5155 21.2104 32.7462 20.7412 32.5578C20.2682 32.3693 20.0374 31.8347 20.2259 31.3655C20.7028 30.1655 21.3373 29.0424 22.1181 28.0309C22.5757 27.4347 23.3065 26.5848 24.3295 26.0771C25.441 25.5271 26.6756 25.5078 27.6409 26.0271C29.2101 26.8771 29.7946 28.8347 29.287 31.5424C29.0254 32.927 28.7024 34.6539 29.56 35.5193C29.9985 35.9616 30.61 35.9577 30.933 35.9116C31.7061 35.8077 32.433 35.3385 32.7868 34.7116C33.7137 33.0731 32.9291 31.0309 32.5484 30.2309C32.1215 29.327 31.5599 28.4924 30.9638 27.6078C30.5254 26.954 30.0715 26.2809 29.6716 25.5694C28.4409 23.3848 28.087 21.2963 28.6408 19.5387C28.7947 19.0541 29.31 18.7848 29.7946 18.9387C30.2792 19.0925 30.5484 19.6079 30.3946 20.0925C29.8908 21.6887 30.5946 23.4617 31.2715 24.6694C31.6369 25.3155 32.0484 25.9348 32.4868 26.5848C33.0906 27.4847 33.7175 28.4193 34.206 29.4463C35.2713 31.6924 35.3328 33.9424 34.3829 35.6231C33.7445 36.75 32.5137 37.5616 31.1715 37.7423C30.9946 37.7654 30.8215 37.7769 30.6484 37.7769" fill="white"/>
<path d="M21.733 32.5809C21.456 33.3924 21.2676 34.227 21.1714 35.0731C21.0676 35.9924 21.1214 36.6616 21.3368 37.1847C21.5637 37.7308 22.0368 38.1308 22.4829 38.1577C22.8791 38.1846 23.3367 37.9193 23.6252 37.5C23.9098 37.0808 24.0713 36.5039 24.1021 35.7808C24.1521 34.5693 23.779 33.5385 23.1021 33.0193C22.706 32.7155 22.2214 32.5924 21.733 32.5809ZM22.5329 39.9962C22.4791 39.9962 22.4252 39.9962 22.3714 39.9923C21.2137 39.9231 20.1407 39.1 19.6369 37.8923C19.1869 36.8116 19.2523 35.6462 19.3408 34.8655C19.4061 34.2847 19.51 33.7078 19.6523 33.1385C18.8216 33.5962 18.0793 34.2501 17.3024 34.9424C17.1139 35.1116 16.9216 35.2808 16.7293 35.4462C15.3794 36.6116 13.5487 37.9616 11.3411 38.0346C10.0527 38.0731 8.68741 37.527 7.78361 36.5924C7.03364 35.8193 6.65674 34.8539 6.72212 33.8732C6.79519 32.7539 7.38363 31.7578 8.42204 30.9924C9.24123 30.3886 10.3104 29.9617 11.4257 29.7924C12.0526 29.6963 12.6834 29.654 13.2949 29.6117C14.4871 29.5309 15.6179 29.454 16.5793 28.9963C17.037 28.7809 17.587 28.9732 17.8024 29.4347C18.0216 29.8924 17.8254 30.4424 17.3639 30.6578C16.0871 31.2616 14.7294 31.354 13.418 31.4463C12.818 31.4886 12.2565 31.527 11.7027 31.6116C10.1989 31.8424 8.63357 32.7347 8.5528 33.9924C8.51434 34.577 8.82971 35.0347 9.09893 35.3116C9.64506 35.8731 10.5027 36.227 11.2758 36.1962C12.9064 36.1424 14.4025 35.0231 15.5217 34.0539C15.7063 33.8924 15.8909 33.7308 16.0755 33.5655C17.0063 32.7424 17.9639 31.8924 19.1562 31.3232C21.3099 30.2963 23.179 30.7732 24.2059 31.5578C25.3789 32.4539 26.0097 34.0193 25.9289 35.8616C25.8828 36.9347 25.6135 37.8385 25.129 38.5423C24.5059 39.45 23.5175 40 22.5214 40" fill="white"/>
<path d="M12.4135 30.85C10.1674 30.85 7.91753 30.7769 5.69072 30.6308C4.61384 30.5615 3.56389 30.4615 2.56779 30.05C1.31015 29.5308 0.38712 28.5462 0.0986724 27.4193C-0.132086 26.5193 0.0448287 25.5577 0.598649 24.7116C1.264 23.6885 2.42549 22.9308 3.62158 22.7347C5.63687 22.4039 7.57524 23.277 9.03671 24.077C10.1751 24.7001 11.3174 25.2116 11.975 24.7501C12.4096 24.4424 12.675 23.3731 11.9135 21.9501C11.3828 20.9616 10.6713 20.0732 9.79052 19.3117C9.40593 18.977 9.36362 18.4001 9.69822 18.0155C10.029 17.6309 10.6097 17.5924 10.9943 17.9232C12.0443 18.8309 12.8981 19.8963 13.5327 21.0809C14.4365 22.7655 14.6634 25.1039 13.0327 26.2539C11.3481 27.4423 9.26747 26.3039 8.15214 25.6924C6.94835 25.0347 5.38304 24.3078 3.92157 24.5501C3.22545 24.6654 2.52548 25.1231 2.13704 25.7193C1.94859 26.0077 1.74859 26.4616 1.87936 26.9654C2.02166 27.5269 2.55625 28.0577 3.2716 28.3539C4.01003 28.6616 4.85614 28.7346 5.80994 28.8C9.49438 29.0423 13.2365 29.0808 16.9286 28.9154C17.4363 28.8923 17.8671 29.2846 17.8901 29.7923C17.9132 30.3 17.5209 30.7308 17.0133 30.7538C15.4864 30.8231 13.9519 30.8577 12.4135 30.8577" fill="white"/>
<path d="M4.39024 17.0041C3.70182 17.0041 2.948 17.2349 2.72109 17.6888C2.64417 17.8426 2.56341 18.2003 2.75571 18.5541C3.06338 19.1157 3.94411 19.4926 5.23251 19.6195C6.09786 19.7041 7.23242 19.5733 8.12468 19.2849C8.49774 19.1657 8.8285 18.981 9.09772 18.758C7.79393 17.8234 6.27477 17.2118 4.73638 17.0234C4.62485 17.008 4.50947 17.0041 4.39024 17.0041ZM5.77864 21.4849C5.52865 21.4849 5.28636 21.4733 5.05944 21.4503C2.60956 21.2156 1.57884 20.2272 1.14809 19.4426C0.62119 18.4849 0.767337 17.4811 1.08271 16.858C1.78267 15.4734 3.58644 15.0272 4.96714 15.1965C6.64398 15.4042 8.29775 16.0234 9.75153 16.9734C9.62846 16.3465 9.24002 15.7311 8.8285 15.2772C8.37852 14.7849 7.84008 14.3657 7.27088 13.9157C6.83628 13.5734 6.39015 13.2234 5.96325 12.8273C4.621 11.5734 3.94027 10.1235 4.04795 8.74654C4.13256 7.64271 4.72869 6.65041 5.7248 5.95042C6.85167 5.15812 8.34006 4.88505 9.60538 5.23504C11.2168 5.68119 13.1937 7.2081 13.9206 10.1581C14.4359 12.2465 14.1936 14.4234 13.9783 16.3426C13.9206 16.8465 13.4667 17.2118 12.9629 17.1541C12.4591 17.0965 12.0937 16.6426 12.1514 16.1388C12.3591 14.2849 12.5706 12.3696 12.136 10.6004C11.6937 8.80423 10.5092 7.39271 9.11695 7.0081C8.36698 6.80041 7.47087 6.97349 6.78244 7.45425C6.47092 7.67348 5.94017 8.1504 5.88248 8.885C5.79787 9.9773 6.68629 10.9811 7.22088 11.4811C7.58625 11.8234 7.98623 12.135 8.40544 12.4657C9.00926 12.9388 9.63231 13.4273 10.1823 14.0311C11.4284 15.3888 11.9091 17.0349 11.4668 18.4311C11.4015 18.6349 11.3168 18.831 11.2168 19.0234C11.2092 19.0387 11.2015 19.0541 11.1899 19.0734C10.6938 19.9657 9.79768 20.6772 8.6862 21.031C7.79393 21.3195 6.73244 21.4772 5.77864 21.4772" fill="white"/>
</svg>
