<svg width="202" height="52" viewBox="0 0 202 52" fill="none" xmlns="http://www.w3.org/2000/svg">
<path d="M16.2789 22.5987C16.182 22.5987 16.0851 22.5848 15.9882 22.5571C15.402 22.3956 15.0559 21.791 15.2174 21.2002C16.0897 18.011 19.4634 8.05576 23.3632 4.22503C25.0847 2.5312 27.4661 1.70967 29.5706 2.09275C32.132 2.5589 34.0658 4.96349 33.7981 7.34961C33.6043 9.04806 32.4135 10.5988 30.4429 11.7203C29.8383 12.0665 29.2152 12.348 28.6153 12.6249C27.803 12.9988 27.0369 13.3495 26.3631 13.8111C25.4954 14.4111 24.5447 15.5188 24.7201 16.6495C24.8354 17.3926 25.4723 18.1126 26.3446 18.4818C27.1384 18.8187 28.1214 18.9295 29.4368 18.8233C30.4567 18.7403 31.4813 18.551 32.4828 18.2603C33.0689 18.0895 33.6781 18.4264 33.8489 19.0126C34.0196 19.5987 33.6827 20.2079 33.0966 20.3787C31.952 20.711 30.7798 20.9279 29.6121 21.0202C27.923 21.1541 26.6123 20.9925 25.477 20.5079C23.8986 19.8341 22.7725 18.4818 22.5417 16.9818C22.214 14.8449 23.654 13.0034 25.1124 11.9926C25.9477 11.4157 26.8384 11.005 27.7015 10.6127C28.2876 10.345 28.8368 10.0911 29.3583 9.79574C29.986 9.44036 31.4582 8.46191 31.6151 7.09115C31.7674 5.74809 30.4613 4.48811 29.1875 4.25734C27.7799 4.0035 26.1415 4.59426 24.9139 5.79886C23.1094 7.57115 19.5649 13.7049 17.3496 21.7818C17.2158 22.271 16.7727 22.5941 16.2882 22.5941" fill="#00A341"/>
<path d="M39.3787 11.9463C38.8434 11.9463 38.1926 12.1263 37.648 12.4402C36.2173 13.2617 35.0682 14.5448 34.2374 16.2432C34.0067 16.714 33.8498 17.2632 33.799 17.8263C35.982 16.9817 37.9434 15.6755 39.531 14.0001C40.1679 13.3263 40.4864 12.6386 40.311 12.3248C40.2556 12.2279 40.1495 12.0848 39.8587 12.0063C39.7156 11.9694 39.5541 11.9509 39.3833 11.9509M43.9524 30.0569C40.7494 30.0569 37.5927 28.8108 35.2666 26.5723C34.8282 26.1477 34.8143 25.4508 35.2389 25.0123C35.6635 24.5739 36.3604 24.56 36.7988 24.9846C39.0095 27.1123 42.2724 28.1785 45.3138 27.7631C45.8492 27.6892 47.6399 27.3569 48.1014 26.1846C48.2722 25.7508 48.226 25.28 47.9583 24.7816C47.5383 23.9877 46.643 23.3185 45.7338 23.1154C44.3446 22.8016 42.8586 23.0924 41.2802 23.397C40.8371 23.48 40.3848 23.5723 39.9279 23.6462C36.8911 24.14 34.5097 23.6093 33.0421 22.1047C32.396 21.4401 31.9529 20.5955 31.7314 19.6632C31.7314 19.6585 31.7314 19.6493 31.7268 19.6447C31.7129 19.5939 31.6991 19.5385 31.6945 19.4878C31.4176 18.1401 31.5929 16.6355 32.2575 15.2786C33.2867 13.1786 34.7313 11.5817 36.5496 10.534C37.528 9.97096 39.0603 9.50481 40.4402 9.88327C41.2294 10.1002 41.8525 10.571 42.2309 11.2448C42.9324 12.4863 42.5309 14.0463 41.1325 15.5232C39.2264 17.5355 36.8542 19.077 34.219 20.0324C34.3297 20.2216 34.4636 20.4016 34.6205 20.5632C35.8158 21.7862 37.9711 21.7308 39.5726 21.4724C39.9972 21.4031 40.4171 21.3201 40.8602 21.237C42.5909 20.9047 44.377 20.5585 46.2138 20.9693C47.7599 21.3154 49.1767 22.3862 49.9013 23.757C50.4644 24.8185 50.552 25.9723 50.1459 27.0015C49.5275 28.5661 47.8752 29.6461 45.6046 29.9554C45.0508 30.0292 44.4969 30.0661 43.9477 30.0661" fill="#54BFE8"/>
<path d="M37.3809 47.3234C36.264 47.3234 35.2394 46.9173 34.501 46.1742C32.6596 44.3142 33.1903 41.4989 33.5734 39.4451C33.7672 38.4066 34.0764 35.9097 32.7196 35.1759C32.2027 34.8943 31.4596 34.9313 30.7766 35.2682C30.1535 35.5774 29.5535 36.1266 28.889 36.9851C28.0767 38.0374 27.4167 39.2004 26.9229 40.4512C26.6968 41.0189 26.0552 41.2958 25.4922 41.0697C24.9245 40.8435 24.6476 40.202 24.8738 39.6389C25.446 38.1989 26.2076 36.8512 27.1444 35.6374C27.6936 34.922 28.5705 33.902 29.7982 33.2928C31.1319 32.6328 32.6134 32.6098 33.7718 33.2328C35.6548 34.2528 36.3563 36.602 35.7471 39.8512C35.4333 41.5127 35.0456 43.585 36.0748 44.6235C36.6009 45.1542 37.3347 45.1496 37.7224 45.0942C38.65 44.9696 39.5223 44.4065 39.9469 43.6542C41.0592 41.6881 40.1177 39.2374 39.6608 38.2774C39.1485 37.1928 38.4747 36.1913 37.7593 35.1297C37.2332 34.3451 36.6886 33.5374 36.2086 32.6836C34.7318 30.0621 34.3072 27.556 34.9718 25.4468C35.1564 24.8652 35.7748 24.5421 36.3563 24.7268C36.9378 24.9114 37.2609 25.5298 37.0763 26.1114C36.4717 28.0267 37.3163 30.1544 38.1285 31.6036C38.567 32.379 39.0608 33.1221 39.5869 33.902C40.3115 34.982 41.0638 36.1036 41.6499 37.3359C42.9283 40.0312 43.0021 42.7312 41.8622 44.7481C41.0961 46.1004 39.6192 47.0742 38.0085 47.2911C37.7962 47.3188 37.5886 47.3327 37.3809 47.3327" fill="#E8373D"/>
<path d="M26.6819 41.0966C26.3496 42.0705 26.1235 43.072 26.0081 44.0874C25.8835 45.1904 25.9481 45.9935 26.2065 46.6212C26.4788 47.2766 27.0465 47.7566 27.5818 47.7889C28.0572 47.8212 28.6064 47.5027 28.9525 46.9997C29.2941 46.4966 29.4879 45.8043 29.5248 44.9366C29.5848 43.4828 29.1372 42.2459 28.3249 41.6228C27.8495 41.2582 27.268 41.1105 26.6819 41.0966ZM27.6418 49.995C27.5772 49.995 27.5126 49.995 27.448 49.9904C26.0588 49.9073 24.7712 48.9196 24.1666 47.4704C23.6266 46.1735 23.7051 44.7751 23.8113 43.8382C23.8897 43.1412 24.0143 42.4489 24.1851 41.7659C23.1882 42.3151 22.2975 43.0997 21.3652 43.9305C21.1391 44.1335 20.9083 44.3366 20.6776 44.5351C19.0576 45.9335 16.8608 47.5535 14.2117 47.6412C12.6656 47.6873 11.0272 47.032 9.94267 45.9104C9.04272 44.9828 8.59043 43.8243 8.66889 42.6474C8.75658 41.3043 9.4627 40.109 10.7088 39.1905C11.6918 38.4659 12.9748 37.9536 14.3132 37.7505C15.0655 37.6351 15.8224 37.5844 16.5562 37.5336C17.9869 37.4367 19.3438 37.3444 20.4976 36.7952C21.0468 36.5367 21.7067 36.7675 21.9652 37.3213C22.2283 37.8705 21.9929 38.5305 21.4391 38.789C19.9068 39.5136 18.2777 39.6244 16.7039 39.7351C15.9839 39.7859 15.3101 39.832 14.6455 39.9336C12.841 40.2105 10.9626 41.2813 10.8657 42.7905C10.8196 43.492 11.198 44.0412 11.5211 44.3735C12.1764 45.0474 13.2056 45.472 14.1332 45.4351C16.0901 45.3704 17.8854 44.0274 19.2284 42.8643C19.4499 42.6705 19.6714 42.4766 19.893 42.2782C21.0098 41.2905 22.159 40.2705 23.5897 39.5874C26.1742 38.3551 28.4172 38.9274 29.6494 39.869C31.0571 40.9443 31.814 42.8228 31.717 45.0335C31.6617 46.3212 31.3386 47.4058 30.7571 48.2504C30.0094 49.3396 28.8233 49.9996 27.628 49.9996" fill="#00A2EA"/>
<path d="M15.4997 39.0196C12.8044 39.0196 10.1046 38.932 7.43238 38.7566C6.14013 38.6735 4.88019 38.5535 3.68486 38.0597C2.1757 37.4366 1.06806 36.2551 0.721922 34.9028C0.445012 33.8228 0.65731 32.6689 1.32189 31.6536C2.12032 30.4259 3.5141 29.5167 4.94942 29.2813C7.36776 28.8844 9.69381 29.932 11.4476 30.892C12.8137 31.6397 14.1844 32.2536 14.9736 31.6997C15.4951 31.3305 15.8135 30.0474 14.8997 28.3398C14.2628 27.1536 13.409 26.0875 12.3521 25.1736C11.8906 24.7721 11.8399 24.0798 12.2414 23.6183C12.6383 23.1567 13.3352 23.1106 13.7967 23.5075C15.0566 24.5967 16.0812 25.8752 16.8427 27.2967C17.9273 29.3182 18.1996 32.1243 16.2427 33.5043C14.2213 34.9305 11.7245 33.5643 10.3861 32.8305C8.94153 32.0413 7.06316 31.169 5.3094 31.4597C4.47405 31.5982 3.63409 32.1474 3.16796 32.8628C2.94182 33.2089 2.70183 33.7535 2.85874 34.3582C3.02951 35.032 3.67101 35.6689 4.52944 36.0243C5.41555 36.3935 6.43088 36.4812 7.57545 36.5597C11.9968 36.8504 16.4873 36.8966 20.9179 36.6981C21.5271 36.6704 22.044 37.1412 22.0717 37.7504C22.0994 38.3597 21.6286 38.8766 21.0194 38.9043C19.1872 38.9873 17.3458 39.0289 15.4997 39.0289" fill="#E96BB0"/>
<path d="M5.8722 22.4053C5.04608 22.4053 4.14151 22.6822 3.86922 23.2268C3.77691 23.4114 3.67999 23.8406 3.91075 24.2652C4.27997 24.9391 5.33684 25.3914 6.88292 25.5437C7.92133 25.6452 9.28281 25.4883 10.3535 25.1422C10.8012 24.9991 11.1981 24.7775 11.5212 24.5099C9.95662 23.3883 8.13363 22.6545 6.28756 22.4283C6.15372 22.4099 6.01527 22.4053 5.8722 22.4053ZM7.53827 27.7821C7.23829 27.7821 6.94753 27.7683 6.67524 27.7406C3.73538 27.4591 2.49851 26.2729 1.98161 25.3314C1.34933 24.1822 1.52471 22.9776 1.90315 22.2299C2.74312 20.5684 4.90763 20.033 6.56447 20.2361C8.57669 20.4853 10.5612 21.2284 12.3057 22.3683C12.1581 21.616 11.6919 20.8776 11.1981 20.333C10.6581 19.7422 10.012 19.2391 9.32896 18.6992C8.80745 18.2884 8.27209 17.8684 7.7598 17.393C6.14911 15.8884 5.33222 14.1484 5.46145 12.4961C5.56298 11.1715 6.27833 9.98079 7.47366 9.1408C8.82591 8.19004 10.612 7.86235 12.1304 8.28234C14.0641 8.81772 16.4363 10.65 17.3086 14.19C17.927 16.6961 17.6363 19.3084 17.3778 21.6114C17.3086 22.216 16.764 22.6545 16.1594 22.5853C15.5548 22.516 15.1164 21.9714 15.1856 21.3668C15.4348 19.1422 15.6887 16.8438 15.1671 14.7207C14.6364 12.5654 13.2149 10.8715 11.5442 10.41C10.6443 10.1608 9.56895 10.3685 8.74283 10.9454C8.369 11.2085 7.73211 11.7808 7.66288 12.6623C7.56135 13.9731 8.62745 15.1777 9.26896 15.7776C9.7074 16.1884 10.1874 16.5623 10.6904 16.9592C11.415 17.5269 12.1627 18.113 12.8226 18.8376C14.318 20.4668 14.8949 22.4422 14.3641 24.1176C14.2856 24.3622 14.1841 24.5976 14.0641 24.8283C14.0549 24.8468 14.0457 24.8652 14.0318 24.8883C13.4365 25.9591 12.3611 26.8129 11.0273 27.2375C9.95662 27.5837 8.68284 27.7729 7.53827 27.7729" fill="#F7B502"/>
<path d="M68.3664 26.5V9.844H69.9504L77.0064 21.436H75.9264L82.9824 9.844H84.5664V26.5H82.3104V13.804L82.8384 13.948L77.2704 23.092H75.6864L70.1184 13.948L70.6224 13.804V26.5H68.3664ZM92.9633 26.74C91.9233 26.74 90.9793 26.484 90.1313 25.972C89.2833 25.444 88.6113 24.732 88.1152 23.836C87.6353 22.94 87.3953 21.932 87.3953 20.812C87.3953 19.692 87.6353 18.684 88.1152 17.788C88.6113 16.892 89.2753 16.18 90.1073 15.652C90.9553 15.124 91.9073 14.86 92.9633 14.86C93.8273 14.86 94.5953 15.044 95.2673 15.412C95.9553 15.764 96.5073 16.26 96.9233 16.9C97.3393 17.524 97.5713 18.252 97.6193 19.084V22.516C97.5713 23.332 97.3393 24.06 96.9233 24.7C96.5233 25.34 95.9793 25.844 95.2913 26.212C94.6193 26.564 93.8433 26.74 92.9633 26.74ZM93.3233 24.7C94.3953 24.7 95.2593 24.34 95.9153 23.62C96.5713 22.884 96.8993 21.948 96.8993 20.812C96.8993 20.028 96.7473 19.348 96.4433 18.772C96.1553 18.18 95.7393 17.724 95.1953 17.404C94.6513 17.068 94.0193 16.9 93.2993 16.9C92.5793 16.9 91.9393 17.068 91.3793 17.404C90.8353 17.74 90.4033 18.204 90.0833 18.796C89.7793 19.372 89.6273 20.036 89.6273 20.788C89.6273 21.556 89.7793 22.236 90.0833 22.828C90.4033 23.404 90.8433 23.86 91.4033 24.196C91.9633 24.532 92.6033 24.7 93.3233 24.7ZM96.7553 26.5V23.428L97.1633 20.644L96.7553 17.884V15.1H98.9393V26.5H96.7553ZM102.084 26.5V15.1H104.244V26.5H102.084ZM104.244 19.996L103.428 19.636C103.428 18.18 103.764 17.02 104.436 16.156C105.108 15.292 106.076 14.86 107.34 14.86C107.916 14.86 108.436 14.964 108.9 15.172C109.364 15.364 109.796 15.692 110.196 16.156L108.78 17.62C108.54 17.364 108.276 17.18 107.988 17.068C107.7 16.956 107.364 16.9 106.98 16.9C106.18 16.9 105.524 17.156 105.012 17.668C104.5 18.18 104.244 18.956 104.244 19.996ZM119.013 26.5L113.685 20.668L118.965 15.1H121.581L115.701 21.244L115.797 19.996L121.797 26.5H119.013ZM111.717 26.5V9.364H113.877V26.5H111.717ZM128.294 26.74C127.158 26.74 126.134 26.484 125.222 25.972C124.31 25.444 123.59 24.732 123.062 23.836C122.534 22.94 122.27 21.924 122.27 20.788C122.27 19.668 122.526 18.66 123.038 17.764C123.566 16.868 124.27 16.164 125.15 15.652C126.046 15.124 127.046 14.86 128.15 14.86C129.206 14.86 130.134 15.1 130.934 15.58C131.75 16.06 132.382 16.724 132.83 17.572C133.294 18.42 133.526 19.38 133.526 20.452C133.526 20.612 133.518 20.788 133.502 20.98C133.486 21.156 133.454 21.364 133.406 21.604H123.782V19.804H132.254L131.462 20.5C131.462 19.732 131.326 19.084 131.054 18.556C130.782 18.012 130.398 17.596 129.902 17.308C129.406 17.004 128.806 16.852 128.102 16.852C127.366 16.852 126.718 17.012 126.158 17.332C125.598 17.652 125.166 18.1 124.862 18.676C124.558 19.252 124.406 19.932 124.406 20.716C124.406 21.516 124.566 22.22 124.886 22.828C125.206 23.42 125.662 23.884 126.254 24.22C126.846 24.54 127.526 24.7 128.294 24.7C128.934 24.7 129.518 24.588 130.046 24.364C130.59 24.14 131.054 23.804 131.438 23.356L132.83 24.772C132.286 25.412 131.614 25.9 130.814 26.236C130.03 26.572 129.19 26.74 128.294 26.74ZM137.281 26.5V10.324H139.441V26.5H137.281ZM134.473 17.068V15.1H142.249V17.068H134.473ZM150.365 26.74C149.501 26.74 148.717 26.564 148.013 26.212C147.325 25.844 146.773 25.34 146.357 24.7C145.941 24.06 145.709 23.332 145.661 22.516V19.084C145.709 18.252 145.941 17.524 146.357 16.9C146.789 16.26 147.349 15.764 148.037 15.412C148.741 15.044 149.517 14.86 150.365 14.86C151.405 14.86 152.341 15.124 153.173 15.652C154.021 16.18 154.685 16.892 155.165 17.788C155.645 18.684 155.885 19.692 155.885 20.812C155.885 21.932 155.645 22.94 155.165 23.836C154.685 24.732 154.021 25.444 153.173 25.972C152.341 26.484 151.405 26.74 150.365 26.74ZM144.365 31.276V15.1H146.525V18.1L146.117 20.86L146.525 23.644V31.276H144.365ZM150.005 24.7C150.725 24.7 151.357 24.532 151.901 24.196C152.445 23.86 152.877 23.404 153.197 22.828C153.517 22.236 153.677 21.556 153.677 20.788C153.677 20.036 153.517 19.364 153.197 18.772C152.877 18.18 152.445 17.724 151.901 17.404C151.357 17.068 150.733 16.9 150.029 16.9C149.309 16.9 148.677 17.068 148.133 17.404C147.589 17.724 147.165 18.18 146.861 18.772C146.557 19.364 146.405 20.044 146.405 20.812C146.405 21.564 146.549 22.236 146.837 22.828C147.141 23.404 147.565 23.86 148.109 24.196C148.669 24.532 149.301 24.7 150.005 24.7ZM158.334 26.5V9.364H160.494V26.5H158.334ZM168.502 26.74C167.462 26.74 166.518 26.484 165.67 25.972C164.822 25.444 164.15 24.732 163.654 23.836C163.174 22.94 162.934 21.932 162.934 20.812C162.934 19.692 163.174 18.684 163.654 17.788C164.15 16.892 164.814 16.18 165.646 15.652C166.494 15.124 167.446 14.86 168.502 14.86C169.366 14.86 170.134 15.044 170.806 15.412C171.494 15.764 172.046 16.26 172.462 16.9C172.878 17.524 173.11 18.252 173.158 19.084V22.516C173.11 23.332 172.878 24.06 172.462 24.7C172.062 25.34 171.518 25.844 170.83 26.212C170.158 26.564 169.382 26.74 168.502 26.74ZM168.862 24.7C169.934 24.7 170.798 24.34 171.454 23.62C172.11 22.884 172.438 21.948 172.438 20.812C172.438 20.028 172.286 19.348 171.982 18.772C171.694 18.18 171.278 17.724 170.734 17.404C170.19 17.068 169.558 16.9 168.838 16.9C168.118 16.9 167.478 17.068 166.918 17.404C166.374 17.74 165.942 18.204 165.622 18.796C165.318 19.372 165.166 20.036 165.166 20.788C165.166 21.556 165.318 22.236 165.622 22.828C165.942 23.404 166.382 23.86 166.942 24.196C167.502 24.532 168.142 24.7 168.862 24.7ZM172.294 26.5V23.428L172.702 20.644L172.294 17.884V15.1H174.478V26.5H172.294ZM182.831 26.74C181.711 26.74 180.695 26.476 179.783 25.948C178.887 25.42 178.175 24.708 177.647 23.812C177.135 22.9 176.879 21.892 176.879 20.788C176.879 19.668 177.135 18.66 177.647 17.764C178.175 16.868 178.887 16.164 179.783 15.652C180.695 15.124 181.711 14.86 182.831 14.86C183.711 14.86 184.527 15.028 185.279 15.364C186.031 15.684 186.679 16.156 187.223 16.78L185.783 18.22C185.431 17.804 184.999 17.492 184.487 17.284C183.991 17.06 183.439 16.948 182.831 16.948C182.111 16.948 181.471 17.116 180.911 17.452C180.351 17.772 179.911 18.22 179.591 18.796C179.271 19.372 179.111 20.036 179.111 20.788C179.111 21.54 179.271 22.204 179.591 22.78C179.911 23.356 180.351 23.812 180.911 24.148C181.471 24.484 182.111 24.652 182.831 24.652C183.439 24.652 183.991 24.548 184.487 24.34C184.999 24.116 185.439 23.796 185.807 23.38L187.223 24.82C186.695 25.428 186.047 25.9 185.279 26.236C184.527 26.572 183.711 26.74 182.831 26.74ZM194.411 26.74C193.275 26.74 192.251 26.484 191.339 25.972C190.427 25.444 189.707 24.732 189.179 23.836C188.651 22.94 188.387 21.924 188.387 20.788C188.387 19.668 188.643 18.66 189.155 17.764C189.683 16.868 190.387 16.164 191.267 15.652C192.163 15.124 193.163 14.86 194.267 14.86C195.323 14.86 196.251 15.1 197.051 15.58C197.867 16.06 198.499 16.724 198.947 17.572C199.411 18.42 199.643 19.38 199.643 20.452C199.643 20.612 199.635 20.788 199.619 20.98C199.603 21.156 199.571 21.364 199.523 21.604H189.899V19.804H198.371L197.579 20.5C197.579 19.732 197.443 19.084 197.171 18.556C196.899 18.012 196.515 17.596 196.019 17.308C195.523 17.004 194.923 16.852 194.219 16.852C193.483 16.852 192.835 17.012 192.275 17.332C191.715 17.652 191.283 18.1 190.979 18.676C190.675 19.252 190.523 19.932 190.523 20.716C190.523 21.516 190.683 22.22 191.003 22.828C191.323 23.42 191.779 23.884 192.371 24.22C192.963 24.54 193.643 24.7 194.411 24.7C195.051 24.7 195.635 24.588 196.163 24.364C196.707 24.14 197.171 23.804 197.555 23.356L198.947 24.772C198.403 25.412 197.731 25.9 196.931 26.236C196.147 26.572 195.307 26.74 194.411 26.74Z" fill="black"/>
<path d="M145.011 47.62C144.571 47.62 144.179 47.528 143.835 47.344C143.491 47.152 143.219 46.892 143.019 46.564C142.827 46.236 142.731 45.864 142.731 45.448V43.792C142.731 43.376 142.831 43.004 143.031 42.676C143.231 42.348 143.503 42.092 143.847 41.908C144.191 41.716 144.579 41.62 145.011 41.62C145.531 41.62 145.999 41.756 146.415 42.028C146.839 42.292 147.171 42.652 147.411 43.108C147.659 43.556 147.783 44.064 147.783 44.632C147.783 45.192 147.659 45.7 147.411 46.156C147.171 46.604 146.839 46.96 146.415 47.224C145.999 47.488 145.531 47.62 145.011 47.62ZM141.927 47.5V38.86H143.247V43.156L143.019 44.548L143.247 45.952V47.5H141.927ZM144.795 46.372C145.115 46.372 145.395 46.3 145.635 46.156C145.883 46.004 146.075 45.796 146.211 45.532C146.355 45.268 146.427 44.964 146.427 44.62C146.427 44.276 146.355 43.972 146.211 43.708C146.075 43.444 145.883 43.24 145.635 43.096C145.395 42.944 145.115 42.868 144.795 42.868C144.475 42.868 144.191 42.944 143.943 43.096C143.695 43.24 143.503 43.444 143.367 43.708C143.231 43.972 143.163 44.276 143.163 44.62C143.163 44.964 143.231 45.268 143.367 45.532C143.503 45.796 143.695 46.004 143.943 46.156C144.191 46.3 144.475 46.372 144.795 46.372ZM150.549 47.56L148.089 41.74H149.541L151.221 46.012H150.801L152.577 41.74H154.041L151.365 47.56H150.549ZM148.833 49.9L150.621 46.216L151.365 47.56L150.297 49.9H148.833Z" fill="black"/>
<path d="M161.696 43.4216C162.093 43.2233 162.399 42.9522 162.615 42.6057C162.831 42.2593 162.941 41.8502 162.941 41.3782C162.941 40.9063 162.833 40.5172 162.615 40.1683C162.399 39.8168 162.093 39.5407 161.701 39.3399C161.31 39.1391 160.858 39.0361 160.348 39.0361H157.195V47.069H158.749V43.7203H159.018L161.583 47.069H163.468L160.787 43.6877C161.121 43.645 161.425 43.5597 161.696 43.4241V43.4216ZM158.749 40.3013H160.2C160.582 40.3013 160.875 40.4067 161.079 40.6151C161.284 40.826 161.387 41.0895 161.387 41.4083C161.387 41.7272 161.284 42.0083 161.079 42.2016C160.873 42.3949 160.577 42.4928 160.187 42.4928H158.749V40.2988V40.3013Z" fill="black"/>
<path d="M167.981 41.7778C167.569 41.5418 167.105 41.4238 166.588 41.4238C166.04 41.4238 165.543 41.5493 165.102 41.8004C164.66 42.0514 164.311 42.3953 164.057 42.8296C163.801 43.2639 163.676 43.7559 163.676 44.3031C163.676 44.8504 163.806 45.3549 164.065 45.7892C164.323 46.2235 164.68 46.5649 165.134 46.8184C165.586 47.0694 166.103 47.195 166.683 47.195C167.132 47.195 167.546 47.1146 167.928 46.954C168.31 46.7933 168.641 46.5548 168.922 46.2335L168.031 45.3424C167.863 45.5407 167.664 45.6863 167.436 45.7766C167.208 45.867 166.952 45.9147 166.67 45.9147C166.359 45.9147 166.083 45.8494 165.847 45.7214C165.611 45.5909 165.43 45.4026 165.305 45.1566C165.255 45.0587 165.22 44.9533 165.189 44.8403L169.218 44.8303C169.248 44.7073 169.268 44.5968 169.276 44.4939C169.284 44.391 169.289 44.2906 169.289 44.1902C169.289 43.658 169.173 43.181 168.945 42.7618C168.716 42.3426 168.397 42.0163 167.986 41.7803L167.981 41.7778ZM165.799 42.8748C166.02 42.7442 166.279 42.6815 166.575 42.6815C166.856 42.6815 167.092 42.7392 167.283 42.8522C167.474 42.9651 167.622 43.1333 167.727 43.3542C167.777 43.4597 167.818 43.5802 167.845 43.7107L165.182 43.7182C165.21 43.6153 165.242 43.5174 165.287 43.4295C165.405 43.1886 165.573 43.0053 165.797 42.8748H165.799Z" fill="black"/>
<path d="M171.168 41.833C170.894 41.833 170.666 41.9234 170.487 42.1016C170.309 42.2798 170.219 42.5083 170.219 42.7819C170.219 43.0555 170.309 43.2739 170.487 43.4572C170.666 43.6404 170.894 43.7308 171.168 43.7308C171.441 43.7308 171.655 43.6404 171.83 43.4572C172.006 43.2739 172.094 43.0505 172.094 42.7819C172.094 42.5133 172.006 42.2823 171.83 42.1016C171.655 41.9234 171.434 41.833 171.168 41.833Z" fill="black"/>
<path d="M171.168 45.2842C170.894 45.2842 170.666 45.3746 170.487 45.5528C170.309 45.731 170.219 45.9594 170.219 46.2331C170.219 46.5067 170.309 46.7276 170.487 46.9134C170.666 47.0991 170.894 47.192 171.168 47.192C171.441 47.192 171.655 47.0991 171.83 46.9134C172.006 46.7276 172.094 46.4992 172.094 46.2331C172.094 45.967 172.006 45.7335 171.83 45.5528C171.655 45.3746 171.434 45.2842 171.168 45.2842Z" fill="black"/>
<path d="M175.144 43.6405H178.788V42.3026H175.144V40.4048H179.12V39.0342H175.144H174.734H173.59V47.0671H174.734H179.178V45.6965H175.144V43.6405Z" fill="black"/>
<path d="M184.133 42.0737C183.98 41.9156 183.801 41.78 183.596 41.6746C183.284 41.5139 182.933 41.4336 182.544 41.4336C182.034 41.4336 181.577 41.5591 181.178 41.8101C180.779 42.0612 180.465 42.4051 180.235 42.8393C180.006 43.2736 179.891 43.7656 179.891 44.3129C179.891 44.8601 180.006 45.3421 180.235 45.7764C180.463 46.2107 180.777 46.5546 181.178 46.8056C181.577 47.0566 182.029 47.1821 182.531 47.1821C182.928 47.1821 183.284 47.1018 183.601 46.9411C183.807 46.8382 183.982 46.7027 184.133 46.547V47.0667H185.641V41.5491H184.133V42.0737ZM183.837 45.3747C183.578 45.6559 183.239 45.7965 182.82 45.7965C182.554 45.7965 182.313 45.7312 182.1 45.6032C181.886 45.4726 181.721 45.2994 181.603 45.0785C181.485 44.8576 181.424 44.5991 181.424 44.3028C181.424 44.0066 181.485 43.7581 181.603 43.5372C181.721 43.3163 181.884 43.1406 182.095 43.0126C182.303 42.882 182.546 42.8193 182.82 42.8193C183.094 42.8193 183.345 42.882 183.55 43.0075C183.756 43.1331 183.919 43.3113 184.042 43.5397C184.163 43.7682 184.226 44.0267 184.226 44.3154C184.226 44.7421 184.095 45.0961 183.837 45.3772V45.3747Z" fill="black"/>
<path d="M190.595 41.5641C190.384 41.4763 190.143 41.4336 189.87 41.4336C189.252 41.4336 188.78 41.6294 188.454 42.021C188.449 42.026 188.446 42.0336 188.441 42.0386V41.5466H186.945V47.0641H188.441V44.0242C188.441 43.605 188.542 43.2962 188.745 43.0979C188.946 42.8996 189.207 42.8017 189.528 42.8017C189.681 42.8017 189.817 42.8218 189.935 42.8645C190.053 42.9071 190.153 42.9774 190.239 43.0753L191.175 41.9909C190.999 41.7926 190.808 41.6495 190.598 41.5616L190.595 41.5641Z" fill="black"/>
<path d="M194.051 39.252H192.554V41.5489H191.262V42.8617H192.554V47.0664H194.051V42.8617H195.341V41.5489H194.051V39.252Z" fill="black"/>
<path d="M201.123 42.4506C200.939 42.1318 200.688 41.8808 200.369 41.7025C200.051 41.5243 199.679 41.4339 199.26 41.4339C198.841 41.4339 198.467 41.5243 198.14 41.7075C197.967 41.8029 197.817 41.9209 197.684 42.0565V38.8057H196.188V47.067H197.684V43.9015C197.684 43.6882 197.731 43.4949 197.827 43.3242C197.922 43.1535 198.053 43.0204 198.221 42.93C198.389 42.8397 198.58 42.792 198.793 42.792C199.112 42.792 199.375 42.8949 199.581 43.1007C199.787 43.3066 199.89 43.5727 199.89 43.9015V47.067H201.399V43.5601C201.399 43.1409 201.308 42.7719 201.125 42.4506H201.123Z" fill="black"/>
</svg>
