<svg width="23" height="22" viewBox="0 0 23 22" fill="none" xmlns="http://www.w3.org/2000/svg">
<path d="M17 19.25C18.5188 19.25 19.75 18.0188 19.75 16.5C19.75 14.9812 18.5188 13.75 17 13.75C15.4812 13.75 14.25 14.9812 14.25 16.5C14.25 18.0188 15.4812 19.25 17 19.25Z" stroke="black" stroke-width="2" stroke-linecap="round" stroke-linejoin="round"/>
<path d="M6 8.25C7.51878 8.25 8.75 7.01878 8.75 5.5C8.75 3.98122 7.51878 2.75 6 2.75C4.48122 2.75 3.25 3.98122 3.25 5.5C3.25 7.01878 4.48122 8.25 6 8.25Z" stroke="black" stroke-width="2" stroke-linecap="round" stroke-linejoin="round"/>
<path d="M12.416 5.5H15.166C15.6522 5.5 16.1186 5.69315 16.4624 6.03697C16.8062 6.38079 16.9993 6.8471 16.9993 7.33333V13.75" stroke="black" stroke-width="2" stroke-linecap="round" stroke-linejoin="round"/>
<path d="M10.5833 16.5H7.83333C7.3471 16.5 6.88079 16.3068 6.53697 15.963C6.19315 15.6192 6 15.1529 6 14.6667V8.25" stroke="black" stroke-width="2" stroke-linecap="round" stroke-linejoin="round"/>
</svg>
