<svg width="23" height="22" viewBox="0 0 23 22" fill="none" xmlns="http://www.w3.org/2000/svg">
<path d="M3.25 2.75V7.33333H7.83333" stroke="black" stroke-width="2" stroke-linecap="round" stroke-linejoin="round"/>
<path d="M3.29583 11.9167C3.49888 13.7553 4.31398 15.4724 5.61022 16.7921C6.90646 18.1119 8.60862 18.9577 10.4433 19.1937C12.2781 19.4297 14.1389 19.0423 15.7269 18.0936C17.315 17.1449 18.5381 15.69 19.1999 13.9626C19.8617 12.2352 19.9238 10.3355 19.3761 8.56861C18.8285 6.80169 17.7029 5.27011 16.1801 4.21982C14.6573 3.16954 12.8258 2.6615 10.9795 2.7773C9.13333 2.89309 7.3796 3.62601 6 4.85834L3.25 7.33334" stroke="black" stroke-width="2" stroke-linecap="round" stroke-linejoin="round"/>
<path d="M11.5 6.41663V11L15.1667 12.8333" stroke="black" stroke-width="2" stroke-linecap="round" stroke-linejoin="round"/>
</svg>
